<?xml version="1.0" encoding="UTF-8" standalone="no"?>
<!-- Created with Inkscape (http://www.inkscape.org/) -->

<svg
   width="210mm"
   height="297mm"
   viewBox="0 0 210 297"
   version="1.1"
   id="svg1"
   xml:space="preserve"
   inkscape:version="1.4.3 (0d15f75042, 2025-12-25)"
   sodipodi:docname="icon.svg"
   xmlns:inkscape="http://www.inkscape.org/namespaces/inkscape"
   xmlns:sodipodi="http://sodipodi.sourceforge.net/DTD/sodipodi-0.dtd"
   xmlns="http://www.w3.org/2000/svg"
   xmlns:svg="http://www.w3.org/2000/svg"><sodipodi:namedview
     id="namedview1"
     pagecolor="#ffffff"
     bordercolor="#000000"
     borderopacity="0.25"
     inkscape:showpageshadow="2"
     inkscape:pageopacity="0.0"
     inkscape:pagecheckerboard="0"
     inkscape:deskcolor="#d1d1d1"
     inkscape:document-units="mm"
     inkscape:zoom="0.77593294"
     inkscape:cx="396.29713"
     inkscape:cy="561.90423"
     inkscape:window-width="1920"
     inkscape:window-height="1047"
     inkscape:window-x="0"
     inkscape:window-y="0"
     inkscape:window-maximized="1"
     inkscape:current-layer="layer1" /><defs
     id="defs1"><style
       id="style1">.cls-1{fill:url(#linear-gradient);}.cls-2{fill:#fff;}</style><linearGradient
       id="linear-gradient"
       x1="-18.79"
       y1="359.73"
       x2="194.32"
       y2="359.73"
       gradientTransform="matrix(0.54239583,0,0,-0.54239583,57.479406,343.63605)"
       gradientUnits="userSpaceOnUse"><stop
         offset="0"
         stop-color="#f1562b"
         id="stop1" /><stop
         offset="0.3"
         stop-color="#f1542b"
         id="stop2" /><stop
         offset="0.41"
         stop-color="#f04d2a"
         id="stop3" /><stop
         offset="0.49"
         stop-color="#ef4229"
         id="stop4" /><stop
         offset="0.5"
         stop-color="#ef4029"
         id="stop5" /><stop
         offset="0.56"
         stop-color="#e83e28"
         id="stop6" /><stop
         offset="0.67"
         stop-color="#e13c26"
         id="stop7" /><stop
         offset="1"
         stop-color="#df3c26"
         id="stop8" /></linearGradient></defs><g
     inkscape:label="Layer 1"
     inkscape:groupmode="layer"
     id="layer1"><path
       id="path8"
       style="fill:url(#linear-gradient);stroke-width:0.264583"
       class="cls-1"
       d="M 105.04113 80.965601 L 84.442908 81.126831 L 72.391447 94.303288 L 70.245325 93.544161 A 12.787312 12.787312 0 0 0 56.870947 96.655599 L 48.782552 104.79154 A 1.7806458 1.7806458 0 0 0 48.422884 106.76764 L 51.457324 113.53054 L 47.295821 124.86525 L 62.236511 181.67677 A 23.733125 23.733125 0 0 0 71.417863 194.96691 L 100.96645 214.99308 A 6.5431458 6.5431458 0 0 0 109.13907 214.99308 L 138.67216 194.93746 A 23.510875 23.510875 0 0 0 147.83749 181.64731 L 160.02641 135.04395 L 162.78335 124.78877 L 158.60582 113.4432 L 161.51624 106.93456 A 2.2410208 2.2410208 0 0 0 161.06665 104.45512 L 153.15809 96.470081 A 12.742333 12.742333 0 0 0 139.86795 93.384998 L 137.70116 94.149809 L 125.63626 81.079289 L 105.04113 80.965601 z M 105.23544 101.62377 A 18.658416 18.658416 0 0 1 107.17589 101.72506 L 111.57097 102.93945 L 117.71168 104.92383 A 8.8608957 8.8608957 0 0 0 121.04274 105.41062 L 132.22707 103.25675 L 134.48636 102.83868 L 134.5923 102.83868 A 18.428229 18.428229 0 0 1 136.10022 104.60343 L 141.18828 110.95343 L 143.89251 114.62608 L 147.68918 120.19783 A 19.449521 19.449521 0 0 1 149.85597 124.28337 A 16.208375 16.208375 0 0 1 150.00686 126.71216 L 149.79499 127.32091 L 149.79499 127.31523 A 9.4720832 9.4720832 0 0 1 149.38778 128.43712 L 146.39778 131.8767 L 133.10815 146.01848 A 3.81 3.81 0 0 0 132.43326 149.81566 L 134.61866 154.97245 A 6.6860207 6.6860207 0 0 1 134.72201 159.20579 L 134.28534 160.40158 A 11.517312 11.517312 0 0 1 130.74499 165.37544 L 128.6552 167.08231 A 3.9396458 3.9396458 0 0 1 124.86111 167.54791 L 117.43676 164.01583 A 18.907125 18.907125 0 0 1 113.64009 161.51004 L 107.68955 156.14706 L 107.64976 156.10985 A 2.38125 2.38125 0 0 1 107.56501 152.72866 L 120.96884 143.67185 A 2.6035 2.6035 0 0 0 121.78378 140.37231 L 116.57428 130.59616 A 5.1064583 5.1064583 0 0 1 116.3097 126.71475 A 5.8419999 5.8419999 0 0 1 119.26249 124.03739 L 135.56847 117.86464 C 136.74851 117.42014 136.67996 116.95425 135.42584 116.83783 L 125.84762 115.94641 A 14.782271 14.782271 0 0 0 121.37605 116.34329 L 113.04168 118.67958 A 2.555875 2.555875 0 0 0 111.25884 121.52643 L 114.5527 139.40958 A 9.2445416 9.2445416 0 0 1 114.71961 142.42593 C 114.57938 142.85455 113.47302 143.44447 112.24535 143.70906 L 107.6787 144.76739 A 12.271375 12.271375 0 0 1 103.21799 144.76739 L 98.14078 143.70906 C 96.915759 143.41008 95.796219 142.88343 95.663928 142.45745 A 9.1863332 9.1863332 0 0 1 95.825675 139.43852 L 99.098344 121.5502 A 2.5505833 2.5505833 0 0 0 97.31499 118.70335 L 88.980615 116.37481 A 14.790208 14.790208 0 0 0 84.509054 115.97793 L 74.931344 116.92775 C 73.685156 117.00184 73.621718 117.53122 74.796468 117.95456 L 91.10555 124.09268 A 5.9187291 5.9187291 0 0 1 94.066093 126.76746 A 5.0826458 5.0826458 0 0 1 93.80151 130.64887 L 88.59976 140.42554 A 2.6008541 2.6008541 0 0 0 89.417281 143.71939 L 102.84747 152.75502 A 2.4024166 2.4024166 0 0 1 103.50893 154.49083 A 2.38125 2.38125 0 0 1 102.71518 156.17341 L 96.772904 161.53639 A 18.621375 18.621375 0 0 1 92.967969 164.04477 L 85.543616 167.59804 A 3.96875 3.96875 0 0 1 81.746948 167.14329 L 79.65922 165.44158 A 11.530542 11.530542 0 0 1 76.116801 160.47806 L 75.682719 159.28227 A 6.6754374 6.6754374 0 0 1 75.786072 155.04893 L 78.016427 149.90041 A 3.7861875 3.7861875 0 0 0 77.341532 146.10633 L 64.051904 131.98006 L 61.054154 128.54047 A 9.1307707 9.1307707 0 0 1 60.707406 127.39222 L 60.495532 126.78348 A 13.49375 13.49375 0 0 1 61.009196 123.25139 L 62.802885 120.25881 L 66.610404 114.68706 C 67.458835 113.4294 68.352775 112.20504 69.292928 111.01441 L 74.373238 104.66441 A 17.406937 17.406937 0 0 1 75.881156 102.89966 L 75.987093 102.89966 L 78.246387 103.31772 L 89.417281 105.43439 A 8.9667291 8.9667291 0 0 0 92.748344 104.9476 L 98.889571 102.95237 L 103.29447 101.72506 A 18.658416 18.658416 0 0 1 105.23544 101.62377 z M 104.55124 164.05252 L 106.00387 164.05252 A 17.359312 17.359312 0 0 1 108.41457 164.92585 L 112.07636 166.42602 L 116.22753 168.32823 L 122.9372 171.7151 A 1.27 1.27 0 0 1 123.11703 174.07775 L 117.2807 178.25579 L 113.68195 181.10522 L 106.96453 186.9736 A 2.6855208 2.6855208 0 0 1 103.53787 186.9736 L 101.97982 185.59797 L 98.540238 182.58937 L 96.896928 181.17395 C 95.741581 180.15795 94.546856 179.20905 93.312134 178.3271 L 87.475281 174.22864 A 1.2805833 1.2805833 0 0 1 87.639095 171.84739 L 94.359615 168.34425 L 98.487012 166.44462 L 102.14105 164.92585 A 17.483666 17.483666 0 0 1 104.55124 164.05252 z " /></g></svg>
