<?xml version="1.0" encoding="UTF-8" standalone="no"?>
<!-- Created with Inkscape (http://www.inkscape.org/) -->

<svg
   width="99.035706mm"
   height="99.096199mm"
   viewBox="0 0 99.035706 99.096199"
   version="1.1"
   id="svg1"
   xml:space="preserve"
   xmlns="http://www.w3.org/2000/svg"
   xmlns:svg="http://www.w3.org/2000/svg"><defs
     id="defs1" /><g
     id="layer1"
     transform="translate(-50.420279,-84.856161)"><path
       fill="#fcf2ee"
       fill-rule="nonzero"
       d="m 69.847052,150.75538 19.487881,-10.93417 0.32756,-0.94959 -0.32756,-0.52811 -0.94959,-2.6e-4 -3.25702,-0.20082 -11.134721,-0.3011 -9.65676,-0.4011 -9.35593,-0.50165 -2.354,-0.50139 -2.20663,-2.90909 0.22728,-1.45098 1.97961,-1.33085 2.83554,0.24738 6.26613,0.42783 9.4025,0.64876 6.82148,0.40138 10.105231,1.04986 h 1.60444 l 0.22754,-0.64849 -0.54848,-0.40137 -0.4281,-0.40138 -9.730315,-6.59394 -10.533066,-6.9686 -5.51709,-4.01267 -2.98265,-2.03279 -1.50468,-1.90606 -0.64849,-4.15951 2.70853,-2.98264 3.63803,0.24738 0.92948,0.24765 3.68511,2.83528 7.87109,6.09255 10.278541,7.57026 1.50468,1.25068 0.60193,-0.42783 0.0736,-0.3011 -0.67548,-1.13003 -5.59065,-10.10523 -5.965291,-10.278531 -2.6551,-4.26005 -0.7022,-2.554554 c -0.24739,-1.04987 -0.42783,-1.93252 -0.42783,-3.00938 l 3.08292,-4.18649 1.70524,-0.548481 4.112951,0.548481 1.73223,1.50469 2.55455,5.84516 4.13967,9.202215 6.42012,12.5124 1.87934,3.71158 1.00304,3.43746 0.374647,1.04987 0.64796,-2.6e-4 v -0.60193 l 0.52838,-7.04877 0.97631,-8.65371 0.94959,-11.134731 0.32782,-3.136374 1.55125,-3.75867 3.08292,-2.03278 2.40745,1.15039 1.97961,2.83528 -0.27411,1.8325 -1.17713,7.650434 -2.30717,11.984031 -1.50468,8.02508 h 0.87656 l 1.0033,-1.00304 4.05924,-5.39009 6.82149,-8.52672 3.00937,-3.38375 3.51102,-3.738301 2.25346,-1.77906 4.25979,-2.7e-4 3.13637,4.661171 -1.40415,4.81515 -4.38705,5.56391 -3.63802,4.71461 -5.21653,7.02205 -3.25675,5.61736 0.30109,0.44821 0.77576,-0.0736 11.78348,-2.50798 6.36641,-1.15014 7.59724,-1.30387 3.43747,1.60496 0.37465,1.63169 -1.35096,3.33719 -8.12536,2.00633 -9.52976,1.90606 -14.19119,3.3573 -0.17383,0.127 0.20055,0.24738 6.39339,0.60193 2.735,0.14711 h 6.69423 l 12.46557,0.92974 3.25676,2.15345 1.95289,2.63498 -0.32755,2.00634 -5.01571,2.55455 -6.76778,-1.60496 -15.79615,-3.75841 -5.41708,-1.35096 -0.74877,-2.7e-4 v 0.44821 l 4.51405,4.41378 8.27247,7.46998 10.35896,9.63004 0.52838,2.38098 -1.33086,1.87908 -1.40414,-0.20056 -9.10193,-6.84821 -3.51102,-3.08266 -7.95153,-6.69449 -0.5281,-2.6e-4 v 0.7022 l 1.8325,2.68182 9.67687,14.54547 0.50139,4.46061 -0.70194,1.45124 -2.50799,0.87603 -2.75537,-0.50138 -5.6642,-7.95179 -5.84517,-8.95456 -4.71461,-8.02508 -0.57494,0.32756 -2.7821,29.96697 -1.30413,1.53141 -3.009367,1.15041 -2.50774,-1.90606 -1.33085,-3.08293 1.33085,-6.09256 1.60497,-7.95125 1.30388,-6.31984 1.17713,-7.85125 0.7022,-2.60826 -0.0468,-0.17383 -0.57494,0.0735 -5.91874,8.12536 -9.00139,12.16475 -7.122321,7.62396 -1.70524,0.67549 -2.95619,-1.53168 0.27437,-2.735 1.6518,-2.43416 9.857581,-12.53914 5.94519,-7.77107 3.83857,-4.4876 -0.0267,-0.64849 h -0.22727 l -26.181581,16.99974 -4.66143,0.60193 -2.00634,-1.87934 0.24765,-3.08292 0.94959,-1.00304 7.87109,-5.41708 -0.0267,0.027 z"
       id="path2"
       style="clip-rule:evenodd;stroke-width:0.264583;image-rendering:optimizeQuality;shape-rendering:geometricPrecision;text-rendering:geometricPrecision" /></g></svg>
